<mxfile host="app.diagrams.net" modified="2022-03-07T04:32:03.505Z" agent="5.0 (Windows NT 10.0; Win64; x64) AppleWebKit/537.36 (KHTML, like Gecko) Chrome/98.0.4758.102 Safari/537.36" etag="xV8CS0Zs8owa1-iZ93mv" version="16.6.6" type="github">
  <diagram id="oOMJW94fes3ijXsylWP4" name="Page-1">
    <mxGraphModel dx="1412" dy="680" grid="1" gridSize="10" guides="1" tooltips="1" connect="1" arrows="1" fold="1" page="1" pageScale="1" pageWidth="827" pageHeight="1169" math="0" shadow="0">
      <root>
        <mxCell id="0" />
        <mxCell id="1" parent="0" />
        <mxCell id="hdqr0LksA3yy58Xh1c3z-1" value="Redis" style="shape=cylinder3;whiteSpace=wrap;html=1;boundedLbl=1;backgroundOutline=1;size=15;fillColor=#d5e8d4;strokeColor=#82b366;sketch=1;fontFamily=Courier New;" vertex="1" parent="1">
          <mxGeometry x="250" y="30" width="60" height="80" as="geometry" />
        </mxCell>
        <mxCell id="hdqr0LksA3yy58Xh1c3z-2" value="MySQL" style="shape=cylinder3;whiteSpace=wrap;html=1;boundedLbl=1;backgroundOutline=1;size=15;fillColor=#d5e8d4;strokeColor=#82b366;sketch=1;fontFamily=Courier New;" vertex="1" parent="1">
          <mxGeometry x="414" y="30" width="60" height="80" as="geometry" />
        </mxCell>
        <mxCell id="hdqr0LksA3yy58Xh1c3z-3" value="Actor" style="shape=umlActor;verticalLabelPosition=bottom;verticalAlign=top;html=1;outlineConnect=0;fillColor=#d5e8d4;strokeColor=#82b366;sketch=1;fontFamily=Courier New;" vertex="1" parent="1">
          <mxGeometry x="9" y="240" width="30" height="60" as="geometry" />
        </mxCell>
        <mxCell id="hdqr0LksA3yy58Xh1c3z-12" style="edgeStyle=orthogonalEdgeStyle;rounded=0;orthogonalLoop=1;jettySize=auto;html=1;exitX=1;exitY=0.75;exitDx=0;exitDy=0;entryX=0;entryY=0.25;entryDx=0;entryDy=0;fillColor=#d5e8d4;strokeColor=#82b366;sketch=1;fontFamily=Courier New;" edge="1" parent="1" source="hdqr0LksA3yy58Xh1c3z-4" target="hdqr0LksA3yy58Xh1c3z-7">
          <mxGeometry relative="1" as="geometry" />
        </mxCell>
        <mxCell id="hdqr0LksA3yy58Xh1c3z-4" value="" style="rounded=0;whiteSpace=wrap;html=1;fillColor=#d5e8d4;strokeColor=#82b366;sketch=1;fontFamily=Courier New;" vertex="1" parent="1">
          <mxGeometry x="60" y="170" width="210" height="200" as="geometry" />
        </mxCell>
        <mxCell id="hdqr0LksA3yy58Xh1c3z-5" value="" style="shape=singleArrow;direction=south;whiteSpace=wrap;html=1;fillColor=#d5e8d4;strokeColor=#82b366;sketch=1;fontFamily=Courier New;" vertex="1" parent="1">
          <mxGeometry x="155" y="370" width="60" height="100" as="geometry" />
        </mxCell>
        <mxCell id="hdqr0LksA3yy58Xh1c3z-6" value="1.不需要loginCheck了，spring security会去认证&lt;br&gt;2. 不需要loginInterceptor了，认证成功之后user丢进了SecurityContextHolder" style="rounded=0;whiteSpace=wrap;html=1;fillColor=#d5e8d4;strokeColor=#82b366;sketch=1;fontFamily=Courier New;" vertex="1" parent="1">
          <mxGeometry x="100" y="470" width="170" height="110" as="geometry" />
        </mxCell>
        <mxCell id="hdqr0LksA3yy58Xh1c3z-7" value="UserDetailService" style="rounded=0;whiteSpace=wrap;html=1;verticalAlign=top;fillColor=#d5e8d4;strokeColor=#82b366;sketch=1;fontFamily=Courier New;" vertex="1" parent="1">
          <mxGeometry x="490" y="300" width="206" height="80" as="geometry" />
        </mxCell>
        <mxCell id="hdqr0LksA3yy58Xh1c3z-11" style="edgeStyle=orthogonalEdgeStyle;rounded=0;orthogonalLoop=1;jettySize=auto;html=1;exitX=1;exitY=0.25;exitDx=0;exitDy=0;entryX=1;entryY=0.5;entryDx=0;entryDy=0;entryPerimeter=0;fillColor=#d5e8d4;strokeColor=#82b366;sketch=1;fontFamily=Courier New;" edge="1" parent="1" source="hdqr0LksA3yy58Xh1c3z-8" target="hdqr0LksA3yy58Xh1c3z-2">
          <mxGeometry relative="1" as="geometry" />
        </mxCell>
        <mxCell id="hdqr0LksA3yy58Xh1c3z-13" style="edgeStyle=orthogonalEdgeStyle;rounded=0;orthogonalLoop=1;jettySize=auto;html=1;exitX=0;exitY=0.25;exitDx=0;exitDy=0;entryX=1;entryY=0.86;entryDx=0;entryDy=0;entryPerimeter=0;fillColor=#d5e8d4;strokeColor=#82b366;sketch=1;fontFamily=Courier New;" edge="1" parent="1" source="hdqr0LksA3yy58Xh1c3z-8" target="hdqr0LksA3yy58Xh1c3z-4">
          <mxGeometry relative="1" as="geometry" />
        </mxCell>
        <mxCell id="hdqr0LksA3yy58Xh1c3z-8" value="loadByUsername" style="rounded=0;whiteSpace=wrap;html=1;fillColor=#d5e8d4;strokeColor=#82b366;sketch=1;fontFamily=Courier New;" vertex="1" parent="1">
          <mxGeometry x="490" y="330" width="206" height="50" as="geometry" />
        </mxCell>
        <mxCell id="hdqr0LksA3yy58Xh1c3z-10" style="rounded=0;orthogonalLoop=1;jettySize=auto;html=1;exitX=0.5;exitY=0;exitDx=0;exitDy=0;entryX=0.5;entryY=1;entryDx=0;entryDy=0;entryPerimeter=0;fillColor=#d5e8d4;strokeColor=#82b366;sketch=1;fontFamily=Courier New;edgeStyle=orthogonalEdgeStyle;" edge="1" parent="1" source="hdqr0LksA3yy58Xh1c3z-9" target="hdqr0LksA3yy58Xh1c3z-1">
          <mxGeometry relative="1" as="geometry" />
        </mxCell>
        <mxCell id="hdqr0LksA3yy58Xh1c3z-9" value="自定义tokenRepository将token存在redis上" style="rounded=0;whiteSpace=wrap;html=1;fillColor=#d5e8d4;strokeColor=#82b366;sketch=1;fontFamily=Courier New;" vertex="1" parent="1">
          <mxGeometry x="340" y="170" width="150" height="60" as="geometry" />
        </mxCell>
        <mxCell id="hdqr0LksA3yy58Xh1c3z-14" value="Filter" style="rounded=0;whiteSpace=wrap;html=1;fontFamily=Courier New;fillColor=#d5e8d4;strokeColor=#82b366;sketch=1;" vertex="1" parent="1">
          <mxGeometry x="60" y="170" width="210" height="20" as="geometry" />
        </mxCell>
        <mxCell id="hdqr0LksA3yy58Xh1c3z-15" value="认证成功之后&lt;br&gt;&lt;span&gt;SecurityContextHolder&lt;/span&gt;&lt;br&gt;&lt;span&gt;.getContext()&lt;/span&gt;&lt;br&gt;&lt;span&gt;.setAuthentication(authResult);&lt;/span&gt;" style="rounded=0;whiteSpace=wrap;html=1;fontFamily=Courier New;fillColor=#d5e8d4;strokeColor=#82b366;sketch=1;" vertex="1" parent="1">
          <mxGeometry x="60" y="190" width="210" height="70" as="geometry" />
        </mxCell>
        <mxCell id="hdqr0LksA3yy58Xh1c3z-17" style="edgeStyle=orthogonalEdgeStyle;rounded=0;sketch=1;orthogonalLoop=1;jettySize=auto;html=1;exitX=1;exitY=0.5;exitDx=0;exitDy=0;entryX=0.5;entryY=1;entryDx=0;entryDy=0;fontFamily=Courier New;fillColor=#d5e8d4;strokeColor=#82b366;" edge="1" parent="1" source="hdqr0LksA3yy58Xh1c3z-16" target="hdqr0LksA3yy58Xh1c3z-9">
          <mxGeometry relative="1" as="geometry" />
        </mxCell>
        <mxCell id="hdqr0LksA3yy58Xh1c3z-16" value="RememberMeAuthenticationFilter" style="rounded=0;whiteSpace=wrap;html=1;fontFamily=Courier New;fillColor=#d5e8d4;strokeColor=#82b366;sketch=1;" vertex="1" parent="1">
          <mxGeometry x="60" y="260" width="210" height="40" as="geometry" />
        </mxCell>
        <mxCell id="hdqr0LksA3yy58Xh1c3z-19" value="自定义filter,provider,token实现邮箱登录" style="rounded=0;whiteSpace=wrap;html=1;fontFamily=Courier New;fillColor=#d5e8d4;strokeColor=#82b366;sketch=1;" vertex="1" parent="1">
          <mxGeometry x="60" y="300" width="210" height="70" as="geometry" />
        </mxCell>
        <mxCell id="hdqr0LksA3yy58Xh1c3z-20" value="认证成功之后将Authentication存入了httpSession中，看看如何用spring session来将其替换存入redis" style="rounded=0;whiteSpace=wrap;html=1;fontFamily=Courier New;" vertex="1" parent="1">
          <mxGeometry x="370" y="410" width="170" height="80" as="geometry" />
        </mxCell>
      </root>
    </mxGraphModel>
  </diagram>
</mxfile>
